<?xml version="1.0" standalone="no"?>
<!DOCTYPE svg PUBLIC "-//W3C//DTD SVG 20010904//EN"
 "http://www.w3.org/TR/2001/REC-SVG-20010904/DTD/svg10.dtd">
<svg version="1.0" xmlns="http://www.w3.org/2000/svg"
 width="480.000000pt" height="502.000000pt" viewBox="0 0 480.000000 502.000000"
 preserveAspectRatio="xMidYMid meet">

<g transform="translate(0.000000,502.000000) scale(0.100000,-0.100000)"
fill="#000000" stroke="none">
<path d="M2345 4664 c-16 -8 -214 -196 -438 -417 -353 -347 -410 -407 -417
-440 -17 -77 -4 -96 220 -322 115 -115 214 -223 220 -240 7 -18 9 -49 5 -75
-6 -41 -18 -56 -138 -177 -109 -109 -138 -133 -169 -138 -86 -16 -95 -10 -334
226 l-222 219 -51 0 c-29 0 -64 -6 -79 -14 -15 -8 -172 -160 -349 -338 -276
-277 -322 -328 -328 -360 -13 -71 0 -95 124 -221 64 -65 128 -125 143 -133 15
-8 50 -14 79 -14 l52 0 126 124 c69 68 140 131 158 140 42 21 86 20 131 -3 20
-11 145 -128 277 -260 l240 -241 -156 -157 c-86 -87 -164 -169 -173 -183 -9
-14 -16 -45 -16 -71 0 -60 20 -87 199 -264 l142 -139 204 204 204 204 166
-164 c91 -91 173 -168 183 -172 27 -11 91 -9 115 3 12 6 95 84 185 172 l162
162 203 -203 202 -202 167 167 c236 238 236 230 -2 468 -88 88 -160 164 -160
170 0 18 494 504 523 515 39 14 83 13 115 -4 15 -8 70 -58 122 -111 135 -138
160 -155 229 -155 l55 0 137 138 c154 154 167 178 134 251 -11 25 -119 140
-304 323 -377 374 -369 368 -439 368 l-56 0 -215 -214 c-119 -118 -229 -219
-244 -225 -37 -14 -92 -14 -120 0 -31 16 -256 239 -273 271 -19 37 -18 97 4
133 11 17 105 115 210 219 105 103 198 203 206 221 19 39 20 101 3 132 -19 35
-810 809 -845 827 -39 20 -78 20 -117 0z m112 -1945 c32 -12 257 -231 279
-271 19 -36 18 -92 -2 -131 -20 -37 -182 -207 -238 -248 -45 -33 -117 -40
-164 -15 -15 8 -79 68 -143 133 -180 182 -180 203 0 387 64 65 130 127 146
137 33 21 79 24 122 8z"/>
<path d="M955 4101 c-48 -22 -259 -234 -274 -274 -15 -39 -14 -83 3 -115 8
-15 70 -82 138 -149 99 -97 130 -123 160 -128 72 -14 95 -1 230 134 192 191
192 211 6 399 -154 156 -183 170 -263 133z"/>
<path d="M3740 4104 c-44 -19 -245 -216 -271 -266 -23 -44 -24 -77 -5 -121 17
-41 242 -262 281 -277 18 -7 49 -9 74 -5 40 6 57 19 168 127 199 196 200 224
13 410 -145 145 -184 165 -260 132z"/>
<path d="M2348 1082 c-37 -17 -243 -226 -266 -269 -16 -30 -15 -98 2 -131 17
-32 222 -235 253 -251 12 -6 45 -11 74 -11 l52 0 129 127 c196 194 197 213 15
400 -150 155 -182 171 -259 135z"/>
</g>
</svg>
